# Export of MainLevel001
# from Aaro4130 OBJ Exporter v2.0
v 0 7.683363 22
v -1.98587 7.683363 22.16751
v 0 8.683363 22
v -1.98587 8.683363 22.16751
v -1.98587 0 0.1675126
v -1.98587 0 -0.8324875
v -1.98587 1 0.1675126
v -1.98587 1 -0.8324875
v -1.98587 0 -0.8324875
v 0 0 -1
v -1.98587 1 -0.8324875
v 0 1 -1
v 0 0 -1
v 0 0 0
v 0 1 -1
v 0 1 0
v 0 1 0
v -1.98587 1 0.1675126
v 0 1 -1
v -1.98587 1 -0.8324875
v 0 0 -1
v -1.98587 0 -0.8324875
v 0 0 0
v -1.98587 0 0.1675126
v 0 0 1
v -1.98587 0 1.167513
v 0 1 1
v 0 0 1
v -1.98587 0 1.167513
v -1.98587 1 1.167513
v -1.98587 1 1.167513
v 0 1 1
v 0 0 2
v -1.98587 0 2.167513
v 0 1 2
v 0 0 2
v -1.98587 0 2.167513
v -1.98587 1 2.167513
v -1.98587 1 2.167513
v 0 1 2
v 0 0 3
v -1.98587 0 3.167513
v 0 1 3
v 0 0 3
v -1.98587 0 3.167513
v -1.98587 1 3.167513
v -1.98587 1 3.167513
v 0 1 3
v 0 0 4
v -1.98587 0 4.167512
v 0 1 4
v 0 0 4
v -1.98587 0 4.167512
v -1.98587 1 4.167512
v -1.98587 1 4.167512
v 0 1 4
v 0 0 5
v -1.98587 0 5.167512
v 0 1 5
v 0 0 5
v -1.98587 0 5.167512
v -1.98587 1 5.167512
v -1.98587 1 5.167512
v 0 1 5
v 0 0 6
v -1.98587 0 6.167512
v 0 1 6
v 0 0 6
v -1.98587 0 6.167512
v -1.98587 1 6.167512
v -1.98587 1 6.167512
v 0 1 6
v 0 0 7
v -1.98587 0 7.167512
v 0 1 7
v 0 0 7
v -1.98587 0 7.167512
v -1.98587 1 7.167512
v -1.98587 1 7.167512
v 0 1 7
v 0 0 8
v -1.98587 0 8.167513
v 0 1 8
v 0 0 8
v -1.98587 0 8.167513
v -1.98587 1 8.167513
v -1.98587 1 8.167513
v 0 1 8
v 0 0 9
v -1.98587 0 9.167513
v 0 1 9
v 0 0 9
v -1.98587 0 9.167513
v -1.98587 1 9.167513
v -1.98587 1 9.167513
v 0 1 9
v 0 0 10
v -1.98587 0 10.16751
v 0 1 10
v 0 0 10
v -1.98587 0 10.16751
v -1.98587 1 10.16751
v -1.98587 1 10.16751
v 0 1 10
v 0 0 11
v -1.98587 0 11.16751
v 0 1 11
v 0 0 11
v -1.98587 0 11.16751
v -1.98587 1 11.16751
v -1.98587 1 11.16751
v 0 1 11
v 0 0 12
v -1.98587 0 12.16751
v 0 1 12
v 0 0 12
v -1.98587 0 12.16751
v -1.98587 1 12.16751
v -1.98587 1 12.16751
v 0 1 12
v 0 0 13
v -1.98587 0 13.16751
v 0 1 13
v 0 0 13
v -1.98587 0 13.16751
v -1.98587 1 13.16751
v -1.98587 1 13.16751
v 0 1 13
v 0 0 13
v -1.98587 0 13.16751
v 0 0.3830872 14
v -1.98587 0.3830872 14.16751
v 0 1.383087 14
v 0 0.3830872 14
v -1.98587 0.3830872 14.16751
v -1.98587 1.383087 14.16751
v -1.98587 1 13.16751
v 0 1 13
v -1.98587 1.383087 14.16751
v 0 1.383087 14
v 0 0.3830872 14
v -1.98587 0.3830872 14.16751
v 0 0.9418316 15
v -1.98587 0.9418316 15.16751
v 0 1.941832 15
v 0 0.9418316 15
v -1.98587 0.9418316 15.16751
v -1.98587 1.941832 15.16751
v -1.98587 1.383087 14.16751
v 0 1.383087 14
v -1.98587 1.941832 15.16751
v 0 1.941832 15
v 0 0.9418316 15
v -1.98587 0.9418316 15.16751
v 0 1.949615 16
v -1.98587 1.949615 16.16751
v 0 2.949615 16
v 0 1.949615 16
v -1.98587 1.949615 16.16751
v -1.98587 2.949615 16.16751
v -1.98587 1.941832 15.16751
v 0 1.941832 15
v -1.98587 2.949615 16.16751
v 0 2.949615 16
v 0 1.949615 16
v -1.98587 1.949615 16.16751
v 0 3.28998 17
v -1.98587 3.28998 17.16751
v 0 4.28998 17
v 0 3.28998 17
v -1.98587 3.28998 17.16751
v -1.98587 4.28998 17.16751
v -1.98587 2.949615 16.16751
v 0 2.949615 16
v -1.98587 4.28998 17.16751
v 0 4.28998 17
v 0 3.28998 17
v -1.98587 3.28998 17.16751
v 0 4.469484 18
v -1.98587 4.469484 18.16751
v 0 5.469484 18
v 0 4.469484 18
v -1.98587 4.469484 18.16751
v -1.98587 5.469484 18.16751
v -1.98587 4.28998 17.16751
v 0 4.28998 17
v -1.98587 5.469484 18.16751
v 0 5.469484 18
v 0 4.469484 18
v -1.98587 4.469484 18.16751
v 0 5.469484 19
v -1.98587 5.469484 19.16751
v 0 6.469484 19
v 0 5.469484 19
v -1.98587 5.469484 19.16751
v -1.98587 6.469484 19.16751
v -1.98587 5.469484 18.16751
v 0 5.469484 18
v -1.98587 6.469484 19.16751
v 0 6.469484 19
v 0 6.469484 20
v -1.98587 6.469484 20.16751
v 0 7.469484 20
v 0 6.469484 20
v -1.98587 6.469484 20.16751
v -1.98587 7.469484 20.16751
v -1.98587 7.469484 20.16751
v 0 7.469484 20
v 0 7.469484 21
v -1.98587 7.469484 21.16751
v 0 8.469484 21
v 0 7.469484 21
v -1.98587 7.469484 21.16751
v -1.98587 8.469484 21.16751
v -1.98587 8.469484 21.16751
v 0 8.469484 21
v 0 7.469484 21
v -1.98587 7.469484 21.16751
v 0 7.683363 22
v -1.98587 7.683363 22.16751
v 0 8.683363 22
v 0 7.683363 22
v -1.98587 7.683363 22.16751
v -1.98587 8.683363 22.16751
v -1.98587 8.469484 21.16751
v 0 8.469484 21
v -1.98587 8.683363 22.16751
v 0 8.683363 22
vn 0.04852854 0 0.5753071
vn 0.04852854 0 0.5753071
vn 0.04852854 0 0.5753071
vn 0.04852854 0 0.5753071
vn -0.5773503 0 0
vn -0.5773503 0 0
vn -0.5773503 0 0
vn -0.5773503 0 0
vn -0.04852844 0 -0.5753071
vn -0.04852844 0 -0.5753071
vn -0.04852844 0 -0.5753071
vn -0.04852844 0 -0.5753071
vn 0.5773503 0 0
vn 0.5773503 0 0
vn 0.5773503 0 0
vn 0.5773503 0 0
vn 0 0.5773503 0
vn 0 0.5773503 0
vn 0 0.5773503 0
vn 0 0.5773503 0
vn 0 -0.5773503 0
vn 0 -0.5773503 0
vn 0 -0.5773503 0
vn 0 -0.5773503 0
vn 0 -0.5773503 0
vn 0 -0.5773503 0
vn 0.5773503 0 0
vn 0.5773503 0 0
vn -0.5773503 0 0
vn -0.5773503 0 0
vn 0 0.5773503 0
vn 0 0.5773503 0
vn 0 -0.5773503 0
vn 0 -0.5773503 0
vn 0.5773503 0 0
vn 0.5773503 0 0
vn -0.5773503 0 0
vn -0.5773503 0 0
vn 0 0.5773503 0
vn 0 0.5773503 0
vn 0 -0.5773503 0
vn 0 -0.5773503 0
vn 0.5773503 0 0
vn 0.5773503 0 0
vn -0.5773503 0 0
vn -0.5773503 0 0
vn 0 0.5773503 0
vn 0 0.5773503 0
vn 0 -0.5773503 0
vn 0 -0.5773503 0
vn 0.5773503 0 0
vn 0.5773503 0 0
vn -0.5773503 0 0
vn -0.5773503 0 0
vn 0 0.5773503 0
vn 0 0.5773503 0
vn 0 -0.5773503 0
vn 0 -0.5773503 0
vn 0.5773503 0 0
vn 0.5773503 0 0
vn -0.5773503 0 0
vn -0.5773503 0 0
vn 0 0.5773503 0
vn 0 0.5773503 0
vn 0 -0.5773503 0
vn 0 -0.5773503 0
vn 0.5773503 0 0
vn 0.5773503 0 0
vn -0.5773503 0 0
vn -0.5773503 0 0
vn 0 0.5773503 0
vn 0 0.5773503 0
vn 0 -0.5773503 0
vn 0 -0.5773503 0
vn 0.5773503 0 0
vn 0.5773503 0 0
vn -0.5773503 0 0
vn -0.5773503 0 0
vn 0 0.5773503 0
vn 0 0.5773503 0
vn 0 -0.5773503 0
vn 0 -0.5773503 0
vn 0.5773503 0 0
vn 0.5773503 0 0
vn -0.5773503 0 0
vn -0.5773503 0 0
vn 0 0.5773503 0
vn 0 0.5773503 0
vn 0 -0.5773503 0
vn 0 -0.5773503 0
vn 0.5773503 0 0
vn 0.5773503 0 0
vn -0.5773503 0 0
vn -0.5773503 0 0
vn 0 0.5773503 0
vn 0 0.5773503 0
vn 0 -0.5773503 0
vn 0 -0.5773503 0
vn 0.5773503 0 0
vn 0.5773503 0 0
vn -0.5773503 0 0
vn -0.5773503 0 0
vn 0 0.5773503 0
vn 0 0.5773503 0
vn 0 -0.5773503 0
vn 0 -0.5773503 0
vn 0.5773503 0 0
vn 0.5773503 0 0
vn -0.5773503 0 0
vn -0.5773503 0 0
vn 0 0.5773503 0
vn 0 0.5773503 0
vn 0 -0.5773503 0
vn 0 -0.5773503 0
vn 0.5773503 0 0
vn 0.5773503 0 0
vn -0.5773503 0 0
vn -0.5773503 0 0
vn 0 0.5773503 0
vn 0 0.5773503 0
vn 0 -0.5773503 0
vn 0 -0.5773503 0
vn 0.5773503 0 0
vn 0.5773503 0 0
vn -0.5773503 0 0
vn -0.5773503 0 0
vn 0 0.5773503 0
vn 0 0.5773503 0
vn 0.01741411 -0.5388976 0.2064448
vn 0.01741411 -0.5388976 0.2064448
vn 0.01741411 -0.5388976 0.2064448
vn 0.01741411 -0.5388976 0.2064448
vn 0.5773503 0 0
vn 0.5773503 0 0
vn -0.5773503 0 0
vn -0.5773503 0 0
vn -0.01741411 0.5388976 -0.2064448
vn -0.01741411 0.5388976 -0.2064448
vn -0.01741411 0.5388976 -0.2064448
vn -0.01741411 0.5388976 -0.2064448
vn 0.02373469 -0.503585 0.2813753
vn 0.02373469 -0.503585 0.2813753
vn 0.02373469 -0.503585 0.2813753
vn 0.02373469 -0.503585 0.2813753
vn 0.5773503 0 0
vn 0.5773503 0 0
vn -0.5773503 0 0
vn -0.5773503 0 0
vn -0.02373469 0.503585 -0.2813753
vn -0.02373469 0.503585 -0.2813753
vn -0.02373469 0.503585 -0.2813753
vn -0.02373468 0.503585 -0.2813753
vn 0.03450816 -0.4059355 0.4090953
vn 0.03450816 -0.4059355 0.4090953
vn 0.03450816 -0.4059355 0.4090953
vn 0.03450816 -0.4059355 0.4090953
vn 0.5773503 0 0
vn 0.5773503 0 0
vn -0.5773503 0 0
vn -0.5773503 0 0
vn -0.03450816 0.4059355 -0.4090953
vn -0.03450816 0.4059355 -0.4090953
vn -0.03450816 0.4059355 -0.4090953
vn -0.03450816 0.4059355 -0.4090953
vn 0.03894538 -0.3444575 0.4616986
vn 0.03894538 -0.3444575 0.4616986
vn 0.03894538 -0.3444575 0.4616986
vn 0.03894538 -0.3444575 0.4616986
vn 0.5773503 0 0
vn 0.5773503 0 0
vn -0.5773503 0 0
vn -0.5773503 0 0
vn -0.03894538 0.3444575 -0.4616986
vn -0.03894538 0.3444575 -0.4616986
vn -0.03894538 0.3444575 -0.4616986
vn -0.03894538 0.3444575 -0.4616986
vn 0.03707051 -0.3725903 0.4394719
vn 0.03707051 -0.3725903 0.4394719
vn 0.03707051 -0.3725903 0.4394719
vn 0.03707051 -0.3725903 0.4394719
vn 0.5773503 0 0
vn 0.5773503 0 0
vn -0.5773503 0 0
vn -0.5773503 0 0
vn -0.03707051 0.3725903 -0.4394719
vn -0.03707051 0.3725903 -0.4394719
vn -0.03707051 0.3725903 -0.4394719
vn -0.03707052 0.3725903 -0.4394719
vn 0.03437563 -0.407524 0.407524
vn 0.03437563 -0.407524 0.407524
vn 0.03437563 -0.407524 0.407524
vn 0.03437563 -0.407524 0.407524
vn 0.5773503 0 0
vn 0.5773503 0 0
vn -0.5773503 0 0
vn -0.5773503 0 0
vn -0.03437563 0.407524 -0.407524
vn -0.03437563 0.407524 -0.407524
vn -0.03437563 0.407524 -0.407524
vn -0.03437563 0.407524 -0.407524
vn 0.03437563 -0.407524 0.407524
vn 0.03437563 -0.407524 0.407524
vn 0.5773503 0 0
vn 0.5773503 0 0
vn -0.5773503 0 0
vn -0.5773503 0 0
vn -0.03437563 0.407524 -0.407524
vn -0.03437563 0.407524 -0.407524
vn 0.03437563 -0.407524 0.407524
vn 0.03437563 -0.407524 0.407524
vn 0.5773503 0 0
vn 0.5773503 0 0
vn -0.5773503 0 0
vn -0.5773503 0 0
vn -0.03437563 0.407524 -0.407524
vn -0.03437563 0.407524 -0.407524
vn 0.01018413 -0.5644937 0.1207331
vn 0.01018413 -0.5644937 0.1207331
vn 0.01018413 -0.5644937 0.1207331
vn 0.01018413 -0.5644937 0.1207331
vn 0.5773503 0 0
vn 0.5773503 0 0
vn -0.5773503 0 0
vn -0.5773503 0 0
vn -0.01018413 0.5644937 -0.1207331
vn -0.01018413 0.5644937 -0.1207331
vn -0.01018413 0.5644937 -0.1207331
vn -0.01018413 0.5644937 -0.1207331
vt -1.849186 7.683363
vt -3.842108 7.683363
vt -1.849186 8.683363
vt -3.842108 8.683363
vt 0.1675126 0
vt -0.8324875 0
vt 0.1675126 1
vt -0.8324875 1
vt 1.908869 0
vt -0.08405373 0
vt 1.908869 1
vt -0.08405373 1
vt 1 0
vt 0 0
vt 1 1
vt 0 1
vt 0 0
vt 1.98587 0.1675126
vt 0 -1
vt 1.98587 -0.8324875
vt 0 -1
vt -1.98587 -0.8324875
vt 0 0
vt -1.98587 0.1675126
vt 0 1
vt -1.98587 1.167513
vt -1 1
vt -1 0
vt 1.167513 0
vt 1.167513 1
vt 1.98587 1.167513
vt 0 1
vt 0 2
vt -1.98587 2.167513
vt -2 1
vt -2 0
vt 2.167513 0
vt 2.167513 1
vt 1.98587 2.167513
vt 0 2
vt 0 3
vt -1.98587 3.167513
vt -3 1
vt -3 0
vt 3.167513 0
vt 3.167513 1
vt 1.98587 3.167513
vt 0 3
vt 0 4
vt -1.98587 4.167512
vt -4 1
vt -4 0
vt 4.167512 0
vt 4.167512 1
vt 1.98587 4.167512
vt 0 4
vt 0 5
vt -1.98587 5.167512
vt -5 1
vt -5 0
vt 5.167512 0
vt 5.167512 1
vt 1.98587 5.167512
vt 0 5
vt 0 6
vt -1.98587 6.167512
vt -6 1
vt -6 0
vt 6.167512 0
vt 6.167512 1
vt 1.98587 6.167512
vt 0 6
vt 0 7
vt -1.98587 7.167512
vt -7 1
vt -7 0
vt 7.167512 0
vt 7.167512 1
vt 1.98587 7.167512
vt 0 7
vt 0 8
vt -1.98587 8.167513
vt -8 1
vt -8 0
vt 8.167513 0
vt 8.167513 1
vt 1.98587 8.167513
vt 0 8
vt 0 9
vt -1.98587 9.167513
vt -9 1
vt -9 0
vt 9.167513 0
vt 9.167513 1
vt 1.98587 9.167513
vt 0 9
vt 0 10
vt -1.98587 10.16751
vt -10 1
vt -10 0
vt 10.16751 0
vt 10.16751 1
vt 1.98587 10.16751
vt 0 10
vt 0 11
vt -1.98587 11.16751
vt -11 1
vt -11 0
vt 11.16751 0
vt 11.16751 1
vt 1.98587 11.16751
vt 0 11
vt 0 12
vt -1.98587 12.16751
vt -12 1
vt -12 0
vt 12.16751 0
vt 12.16751 1
vt 1.98587 12.16751
vt 0 12
vt 0 13
vt -1.98587 13.16751
vt -13 1
vt -13 0
vt 13.16751 0
vt 13.16751 1
vt 1.98587 13.16751
vt 0 13
vt 0 12.14051
vt -1.984834 12.31988
vt 0.01237274 13.2113
vt -1.972461 13.39068
vt -14 1.383087
vt -14 0.3830872
vt 14.16751 0.3830872
vt 14.16751 1.383087
vt 1.952536 12.67727
vt -0.03229746 12.4979
vt 1.940164 13.74806
vt -0.04467021 13.56869
vt 0.01803543 12.41134
vt -1.965632 12.60318
vt 0.04434066 13.55655
vt -1.939327 13.74838
vt -15 1.941832
vt -15 0.9418316
vt 15.16751 0.9418316
vt 15.16751 1.941832
vt 1.918553 13.08999
vt -0.0651146 12.89815
vt 1.892248 14.2352
vt -0.09141983 14.04336
vt -1.260808 11.17892
vt -3.253731 11.17892
vt -1.344862 12.59616
vt -3.337785 12.59616
vt -16 2.949615
vt -16 1.949615
vt 16.16751 1.949615
vt 16.16751 2.949615
vt 3.253731 11.89001
vt 1.260808 11.89001
vt 3.337785 13.30725
vt 1.344862 13.30725
vt -1.344862 11.07672
vt -3.337785 11.07672
vt -1.428916 12.74691
vt -3.421839 12.74691
vt -17 4.28998
vt -17 3.28998
vt 17.16751 3.28998
vt 17.16751 4.28998
vt 3.337785 11.87925
vt 1.344862 11.87925
vt 3.421839 13.54943
vt 1.428916 13.54943
vt -1.428916 13.44523
vt -3.421839 13.44523
vt -1.51297 14.98931
vt -3.505893 14.98931
vt -18 5.469484
vt -18 4.469484
vt 18.16751 4.469484
vt 18.16751 5.469484
vt 3.421839 14.20912
vt 1.428916 14.20912
vt 3.505893 15.7532
vt 1.51297 15.7532
vt -1.51297 15.82638
vt -3.505893 15.82638
vt -1.597024 17.23809
vt -3.589947 17.23809
vt -19 6.469484
vt -19 5.469484
vt 19.16751 5.469484
vt 19.16751 6.469484
vt 3.505893 16.53474
vt 1.51297 16.53474
vt 3.589947 17.94645
vt 1.597024 17.94645
vt -1.681078 18.64981
vt -3.674 18.64981
vt -20 7.469484
vt -20 6.469484
vt 20.16751 6.469484
vt 20.16751 7.469484
vt 3.674 19.35817
vt 1.681078 19.35817
vt -1.765132 20.06152
vt -3.758054 20.06152
vt -21 8.469484
vt -21 7.469484
vt 21.16751 7.469484
vt 21.16751 8.469484
vt 3.758054 20.76988
vt 1.765132 20.76988
vt 0.1347363 22.09744
vt -1.85081 22.26874
vt 0.1385943 23.12005
vt -1.846952 23.29135
vt -22 8.683363
vt -22 7.683363
vt 22.16751 7.683363
vt 22.16751 8.683363
vt 1.832772 22.47782
vt -0.1527746 22.30652
vt 1.828914 23.50043
vt -0.1566326 23.32913
usemtl Default_Prototype
f 3/3/3 2/2/2 1/1/1
f 3/3/3 4/4/4 2/2/2
f 7/7/7 6/6/6 5/5/5
f 7/7/7 8/8/8 6/6/6
f 11/11/11 10/10/10 9/9/9
f 11/11/11 12/12/12 10/10/10
f 15/15/15 14/14/14 13/13/13
f 15/15/15 16/16/16 14/14/14
f 19/19/19 18/18/18 17/17/17
f 19/19/19 20/20/20 18/18/18
f 23/23/23 22/22/22 21/21/21
f 23/23/23 24/24/24 22/22/22
f 25/25/25 24/24/24 23/23/23
f 25/25/25 26/26/26 24/24/24
f 27/27/27 14/14/14 16/16/16
f 27/27/27 28/28/28 14/14/14
f 29/29/29 7/7/7 5/5/5
f 29/29/29 30/30/30 7/7/7
f 31/31/31 17/17/17 18/18/18
f 31/31/31 32/32/32 17/17/17
f 33/33/33 26/26/26 25/25/25
f 33/33/33 34/34/34 26/26/26
f 35/35/35 28/28/28 27/27/27
f 35/35/35 36/36/36 28/28/28
f 37/37/37 30/30/30 29/29/29
f 37/37/37 38/38/38 30/30/30
f 39/39/39 32/32/32 31/31/31
f 39/39/39 40/40/40 32/32/32
f 41/41/41 34/34/34 33/33/33
f 41/41/41 42/42/42 34/34/34
f 43/43/43 36/36/36 35/35/35
f 43/43/43 44/44/44 36/36/36
f 45/45/45 38/38/38 37/37/37
f 45/45/45 46/46/46 38/38/38
f 47/47/47 40/40/40 39/39/39
f 47/47/47 48/48/48 40/40/40
f 49/49/49 42/42/42 41/41/41
f 49/49/49 50/50/50 42/42/42
f 51/51/51 44/44/44 43/43/43
f 51/51/51 52/52/52 44/44/44
f 53/53/53 46/46/46 45/45/45
f 53/53/53 54/54/54 46/46/46
f 55/55/55 48/48/48 47/47/47
f 55/55/55 56/56/56 48/48/48
f 57/57/57 50/50/50 49/49/49
f 57/57/57 58/58/58 50/50/50
f 59/59/59 52/52/52 51/51/51
f 59/59/59 60/60/60 52/52/52
f 61/61/61 54/54/54 53/53/53
f 61/61/61 62/62/62 54/54/54
f 63/63/63 56/56/56 55/55/55
f 63/63/63 64/64/64 56/56/56
f 65/65/65 58/58/58 57/57/57
f 65/65/65 66/66/66 58/58/58
f 67/67/67 60/60/60 59/59/59
f 67/67/67 68/68/68 60/60/60
f 69/69/69 62/62/62 61/61/61
f 69/69/69 70/70/70 62/62/62
f 71/71/71 64/64/64 63/63/63
f 71/71/71 72/72/72 64/64/64
f 73/73/73 66/66/66 65/65/65
f 73/73/73 74/74/74 66/66/66
f 75/75/75 68/68/68 67/67/67
f 75/75/75 76/76/76 68/68/68
f 77/77/77 70/70/70 69/69/69
f 77/77/77 78/78/78 70/70/70
f 79/79/79 72/72/72 71/71/71
f 79/79/79 80/80/80 72/72/72
f 81/81/81 74/74/74 73/73/73
f 81/81/81 82/82/82 74/74/74
f 83/83/83 76/76/76 75/75/75
f 83/83/83 84/84/84 76/76/76
f 85/85/85 78/78/78 77/77/77
f 85/85/85 86/86/86 78/78/78
f 87/87/87 80/80/80 79/79/79
f 87/87/87 88/88/88 80/80/80
f 89/89/89 82/82/82 81/81/81
f 89/89/89 90/90/90 82/82/82
f 91/91/91 84/84/84 83/83/83
f 91/91/91 92/92/92 84/84/84
f 93/93/93 86/86/86 85/85/85
f 93/93/93 94/94/94 86/86/86
f 95/95/95 88/88/88 87/87/87
f 95/95/95 96/96/96 88/88/88
f 97/97/97 90/90/90 89/89/89
f 97/97/97 98/98/98 90/90/90
f 99/99/99 92/92/92 91/91/91
f 99/99/99 100/100/100 92/92/92
f 101/101/101 94/94/94 93/93/93
f 101/101/101 102/102/102 94/94/94
f 103/103/103 96/96/96 95/95/95
f 103/103/103 104/104/104 96/96/96
f 105/105/105 98/98/98 97/97/97
f 105/105/105 106/106/106 98/98/98
f 107/107/107 100/100/100 99/99/99
f 107/107/107 108/108/108 100/100/100
f 109/109/109 102/102/102 101/101/101
f 109/109/109 110/110/110 102/102/102
f 111/111/111 104/104/104 103/103/103
f 111/111/111 112/112/112 104/104/104
f 113/113/113 106/106/106 105/105/105
f 113/113/113 114/114/114 106/106/106
f 115/115/115 108/108/108 107/107/107
f 115/115/115 116/116/116 108/108/108
f 117/117/117 110/110/110 109/109/109
f 117/117/117 118/118/118 110/110/110
f 119/119/119 112/112/112 111/111/111
f 119/119/119 120/120/120 112/112/112
f 121/121/121 114/114/114 113/113/113
f 121/121/121 122/122/122 114/114/114
f 123/123/123 116/116/116 115/115/115
f 123/123/123 124/124/124 116/116/116
f 125/125/125 118/118/118 117/117/117
f 125/125/125 126/126/126 118/118/118
f 127/127/127 120/120/120 119/119/119
f 127/127/127 128/128/128 120/120/120
f 131/131/131 130/130/130 129/129/129
f 131/131/131 132/132/132 130/130/130
f 133/133/133 124/124/124 123/123/123
f 133/133/133 134/134/134 124/124/124
f 135/135/135 126/126/126 125/125/125
f 135/135/135 136/136/136 126/126/126
f 139/139/139 138/138/138 137/137/137
f 139/139/139 140/140/140 138/138/138
f 143/143/143 142/142/142 141/141/141
f 143/143/143 144/144/144 142/142/142
f 145/145/145 134/134/134 133/133/133
f 145/145/145 146/146/146 134/134/134
f 147/147/147 136/136/136 135/135/135
f 147/147/147 148/148/148 136/136/136
f 151/151/151 150/150/150 149/149/149
f 151/151/151 152/152/152 150/150/150
f 155/155/155 154/154/154 153/153/153
f 155/155/155 156/156/156 154/154/154
f 157/157/157 146/146/146 145/145/145
f 157/157/157 158/158/158 146/146/146
f 159/159/159 148/148/148 147/147/147
f 159/159/159 160/160/160 148/148/148
f 163/163/163 162/162/162 161/161/161
f 163/163/163 164/164/164 162/162/162
f 167/167/167 166/166/166 165/165/165
f 167/167/167 168/168/168 166/166/166
f 169/169/169 158/158/158 157/157/157
f 169/169/169 170/170/170 158/158/158
f 171/171/171 160/160/160 159/159/159
f 171/171/171 172/172/172 160/160/160
f 175/175/175 174/174/174 173/173/173
f 175/175/175 176/176/176 174/174/174
f 179/179/179 178/178/178 177/177/177
f 179/179/179 180/180/180 178/178/178
f 181/181/181 170/170/170 169/169/169
f 181/181/181 182/182/182 170/170/170
f 183/183/183 172/172/172 171/171/171
f 183/183/183 184/184/184 172/172/172
f 187/187/187 186/186/186 185/185/185
f 187/187/187 188/188/188 186/186/186
f 191/191/191 190/190/190 189/189/189
f 191/191/191 192/192/192 190/190/190
f 193/193/193 182/182/182 181/181/181
f 193/193/193 194/194/194 182/182/182
f 195/195/195 184/184/184 183/183/183
f 195/195/195 196/196/196 184/184/184
f 199/199/199 198/198/198 197/197/197
f 199/199/199 200/200/200 198/198/198
f 201/201/201 192/192/192 191/191/191
f 201/201/201 202/202/202 192/192/192
f 203/203/203 194/194/194 193/193/193
f 203/203/203 204/204/204 194/194/194
f 205/205/205 196/196/196 195/195/195
f 205/205/205 206/206/206 196/196/196
f 207/207/207 200/200/200 199/199/199
f 207/207/207 208/208/208 200/200/200
f 209/209/209 202/202/202 201/201/201
f 209/209/209 210/210/210 202/202/202
f 211/211/211 204/204/204 203/203/203
f 211/211/211 212/212/212 204/204/204
f 213/213/213 206/206/206 205/205/205
f 213/213/213 214/214/214 206/206/206
f 215/215/215 208/208/208 207/207/207
f 215/215/215 216/216/216 208/208/208
f 219/219/219 218/218/218 217/217/217
f 219/219/219 220/220/220 218/218/218
f 221/221/221 212/212/212 211/211/211
f 221/221/221 222/222/222 212/212/212
f 223/223/223 214/214/214 213/213/213
f 223/223/223 224/224/224 214/214/214
f 227/227/227 226/226/226 225/225/225
f 227/227/227 228/228/228 226/226/226
