# Export of MainLevel001
# from Aaro4130 OBJ Exporter v2.0
g Hand_001_Environment_001_Giant
v 0 0 2
v -1 0 2
v -5 7 2
v -6 7 2
v -1 0 1
v -1 0 -1
v -6 7 1
v -6 7 -1
v -1 0 -1
v 0 0 -1
v -6 7 -1
v -5 7 -1
v 0 0 -1
v 0 0 1
v -5 7 -1
v -5 7 1
v -16.63241 1.814129 2.2
v -16.32948 -0.3649111 2.2
v -16.63241 1.814129 -2.2
v -16.32948 -0.3649111 -2.2
v 0 0 -1
v -1 0 -1
v 0 0 1
v -1 0 1
v -7.568848 8.495236 2
v -7.431152 7.504764 2
v -5 7 -1
v -5 7 1
v -7.568848 8.495236 -1
v -7.568848 8.495236 1
v -6 7 1
v -6 7 -1
v -7.431152 7.504764 1
v -7.431152 7.504764 -1
v -7.431152 7.504764 -1
v -7.568848 8.495236 -1
v -7.568848 8.495236 2
v -7.431152 7.504764 2
v -12.41452 1.377671 1.989256
v -12.27683 0.3871981 1.989256
v -7.568848 8.495236 -1
v -7.568848 8.495236 1
v -12.55932 1.357541 -1
v -12.55932 1.357541 1
v -7.431152 7.504764 1
v -7.431152 7.504764 -1
v -12.42163 0.3670681 1
v -12.42163 0.3670681 -1
v -12.42163 0.3670681 -1
v -12.55932 1.357541 -1
v -12.41452 1.377671 1.989256
v -12.27683 0.3871981 1.989256
v -16.34593 1.853957 3.157255
v -16.043 -0.3250836 3.157255
v -12.55932 1.357541 -1
v -12.55932 1.357541 1
v -16.63241 1.814129 -2.2
v -16.63241 1.814129 2.2
v -12.42163 0.3670681 1
v -12.42163 0.3670681 -1
v -16.32948 -0.3649111 2.2
v -16.32948 -0.3649111 -2.2
v -12.42163 0.3670681 -1
v -12.55932 1.357541 -1
v -16.32948 -0.3649111 -2.2
v -16.63241 1.814129 -2.2
v -12.42163 0.3670681 1
v -7.431152 7.504764 2
v -12.27683 0.3871981 1.989256
v -7.568848 8.495236 2
v -5 7 2
v -6 7 2
v -7.431152 7.504764 2
v -12.55932 1.357541 1
v -7.568848 8.495236 1
v -12.41452 1.377671 1.989256
v -7.568848 8.495236 2
v 0 0 2
v -1 0 2
v -5 7 2
v 0 0 2
v -1 0 2
v -6 7 2
v -16.63241 1.814129 2.2
v -12.55932 1.357541 1
v -16.34593 1.853957 3.157255
v -12.41452 1.377671 1.989256
v -12.42163 0.3670681 1
v -16.32948 -0.3649111 2.2
v -12.27683 0.3871981 1.989256
v -16.043 -0.3250836 3.157255
v -16.32948 -0.3649111 2.2
v -16.63241 1.814129 2.2
v -16.043 -0.3250836 3.157255
v -16.34593 1.853957 3.157255
vn 0 0 1
vn 0 0 1
vn 0 0 1
vn 0 0 1
vn -0.8137335 -0.5812382 0
vn -0.8137335 -0.5812382 0
vn -0.8137335 -0.5812382 0
vn -0.8137335 -0.5812382 0
vn 0 0 -1
vn 0 0 -1
vn 0 0 -1
vn 0 0 -1
vn 0.8137335 0.5812382 0
vn 0.8137335 0.5812382 0
vn 0.8137335 0.5812382 0
vn 0.8137335 0.5812382 0
vn -0.9904747 -0.1376952 0
vn -0.9904747 -0.1376952 0
vn -0.9904747 -0.1376952 0
vn -0.9904747 -0.1376952 0
vn 0 -1 0
vn 0 -1 0
vn 0 -1 0
vn 0 -1 0
vn 0 0 1
vn 0 0 1
vn 0.5030529 0.8642556 0
vn 0.5030529 0.8642556 0
vn 0.5030529 0.8642556 0
vn 0.5030529 0.8642556 0
vn -0.3326156 -0.9430625 0
vn -0.3326156 -0.9430625 0
vn -0.3326156 -0.9430625 0
vn -0.3326156 -0.9430625 0
vn 0 0 -1
vn 0 0 -1
vn -0.001841225 -0.0002559667 0.9999983
vn -0.001841226 -0.0002559668 0.9999983
vn -0.001841226 -0.0002559668 0.9999983
vn -0.001841226 -0.0002559669 0.9999983
vn -0.8195508 0.5730067 0
vn -0.8195508 0.5730067 0
vn -0.8195508 0.5730067 0
vn -0.8195508 0.5730067 0
vn 0.8195508 -0.5730067 0
vn 0.8195508 -0.5730067 0
vn 0.8195508 -0.5730067 0
vn 0.8195508 -0.5730067 0
vn 0 0 -0.9999999
vn 0 0 -1
vn 0.2890318 0.04018112 0.9564758
vn 0.2890318 0.04018107 0.9564759
vn 0.2890318 0.04018107 0.9564759
vn 0.2890318 0.04018104 0.9564759
vn 0.1114009 0.9937755 0
vn 0.1114009 0.9937755 0
vn 0.1114009 0.9937755 0
vn 0.1114009 0.9937755 0
vn 0.1841077 -0.9829061 0
vn 0.1841077 -0.9829061 0
vn 0.1841077 -0.9829061 0
vn 0.1841077 -0.9829061 0
vn 0.2864878 0.03982745 -0.9572557
vn 0.2864878 0.03982742 -0.9572557
vn 0.2864878 0.03982742 -0.9572557
vn 0.2864878 0.0398274 -0.9572557
vn 0.8218938 -0.5670671 -0.05408782
vn 0.8218938 -0.5670671 -0.05408782
vn 0.8217769 -0.5593055 -0.1089039
vn 0.5030529 0.8642556 0
vn 0.5030529 0.8642556 0
vn -0.3326156 -0.9430625 0
vn -0.3326156 -0.9430625 0
vn -0.8147865 0.5696756 0.1076697
vn -0.8218938 0.5670671 0.05408781
vn -0.8218938 0.5670671 0.05408781
vn -0.8266169 0.5627651 0
vn 0 -1 0
vn 0 -1 0
vn 0.8137335 0.5812382 0
vn 0.8137335 0.5812382 0
vn -0.8137335 -0.5812382 0
vn -0.8137335 -0.5812382 0
vn 0.09115186 0.9934705 -0.06861416
vn 0.1001741 0.9935679 -0.05279991
vn 0.1001741 0.9935679 -0.05279991
vn 0.1095696 0.9933179 -0.0362506
vn 0.1821302 -0.983252 -0.006650896
vn 0.1819552 -0.9832557 -0.01002889
vn 0.1819552 -0.9832557 -0.01002889
vn 0.1817736 -0.9832478 -0.01349235
vn -0.9481376 -0.1318095 0.2892428
vn -0.9481376 -0.1318095 0.2892428
vn -0.9481376 -0.1318095 0.2892428
vn -0.9481376 -0.1318095 0.2892428
vt 0 0
vt -1 0
vt -5 7
vt -6 7
vt 1 0.5812382
vt -1 0.5812382
vt 1 9.183563
vt -1 9.183563
vt 1 0
vt 0 0
vt 6 7
vt 5 7
vt 1 0
vt -1 0
vt 1 8.602325
vt -1 8.602325
vt 2.2 4.087053
vt 2.2 1.887057
vt -2.2 4.087053
vt -2.2 1.887057
vt 0 -1
vt -1 -1
vt 0 1
vt -1 1
vt -7.568848 8.495236
vt -7.431152 7.504764
vt 7.842649 -1
vt 7.842649 1
vt 10.81497 -1
vt 10.81497 1
vt -7.986684 1
vt -7.986684 -1
vt -9.504243 1
vt -9.504243 -1
vt 7.431152 7.504764
vt 7.568848 8.495236
vt -7.565153 8.495752
vt -7.427457 7.505279
vt -12.41084 1.378186
vt -12.27314 0.387713
vt -1 2.625277
vt 1 2.625277
vt -1 -6.084002
vt 1 -6.084002
vt -1 1.892435
vt 1 1.892435
vt -1 -6.816844
vt 1 -6.816844
vt 12.42163 0.3670681
vt 12.55932 1.357541
vt -12.45921 1.44434
vt -12.3274 0.4530656
vt -16.56041 1.92101
vt -16.27043 -0.2597918
vt 12.63238 -1
vt 12.63238 1
vt 16.73098 -2.2
vt 16.73098 2.2
vt -12.14171 1
vt -12.14171 -1
vt -16.11753 2.2
vt -16.11753 -2.2
vt 12.18683 0.4704658
vt 12.31874 1.461726
vt 16.27468 -0.2620946
vt 16.56489 1.918676
vt -1 -6.816844
vt -2 1.892435
vt -1.989256 -6.717376
vt 10.81497 2
vt 7.842649 2
vt -7.986684 2
vt -9.504243 2
vt -0.653962 -6.051986
vt -0.0001810247 2.632719
vt 0.3457379 -6.027493
vt 0.9912006 2.558088
vt 0 2
vt -1 2
vt -2 8.602325
vt -2 0
vt 2 0.5812382
vt 2 9.183563
vt 16.7286 2.214499
vt 12.63083 1.011665
vt 16.44695 3.174016
vt 12.48847 2.000873
vt -12.147 0.9825304
vt -16.12282 2.182556
vt -12.00096 1.971808
vt -15.83387 3.139878
vt -2.660496 1.781602
vt -2.748888 3.979822
vt -1.661304 1.82178
vt -1.749695 4.02
usemtl Default_Prototype
f 3/3/3 2/2/2 1/1/1
f 3/3/3 4/4/4 2/2/2
f 7/7/7 6/6/6 5/5/5
f 7/7/7 8/8/8 6/6/6
f 11/11/11 10/10/10 9/9/9
f 11/11/11 12/12/12 10/10/10
f 15/15/15 14/14/14 13/13/13
f 15/15/15 16/16/16 14/14/14
f 19/19/19 18/18/18 17/17/17
f 19/19/19 20/20/20 18/18/18
f 23/23/23 22/22/22 21/21/21
f 23/23/23 24/24/24 22/22/22
f 25/25/25 4/4/4 3/3/3
f 25/25/25 26/26/26 4/4/4
f 29/29/29 28/28/28 27/27/27
f 29/29/29 30/30/30 28/28/28
f 33/33/33 32/32/32 31/31/31
f 33/33/33 34/34/34 32/32/32
f 35/35/35 12/12/12 11/11/11
f 35/35/35 36/36/36 12/12/12
f 39/39/39 38/38/38 37/37/37
f 39/39/39 40/40/40 38/38/38
f 43/43/43 42/42/42 41/41/41
f 43/43/43 44/44/44 42/42/42
f 47/47/47 46/46/46 45/45/45
f 47/47/47 48/48/48 46/46/46
f 49/49/49 36/36/36 35/35/35
f 49/49/49 50/50/50 36/36/36
f 53/53/53 52/52/52 51/51/51
f 53/53/53 54/54/54 52/52/52
f 57/57/57 56/56/56 55/55/55
f 57/57/57 58/58/58 56/56/56
f 61/61/61 60/60/60 59/59/59
f 61/61/61 62/62/62 60/60/60
f 65/65/65 64/64/64 63/63/63
f 65/65/65 66/66/66 64/64/64
f 68/68/68 67/67/67 45/45/45
f 68/68/68 69/69/69 67/67/67
f 70/70/70 28/28/28 30/30/30
f 70/70/70 71/71/71 28/28/28
f 72/72/72 33/33/33 31/31/31
f 72/72/72 73/73/73 33/33/33
f 76/76/76 75/75/75 74/74/74
f 76/76/76 77/77/77 75/75/75
f 78/78/78 24/24/24 23/23/23
f 78/78/78 79/79/79 24/24/24
f 80/80/80 14/14/14 16/16/16
f 80/80/80 81/81/81 14/14/14
f 82/82/82 7/7/7 5/5/5
f 82/82/82 83/83/83 7/7/7
f 86/86/86 85/85/85 84/84/84
f 86/86/86 87/87/87 85/85/85
f 90/90/90 89/89/89 88/88/88
f 90/90/90 91/91/91 89/89/89
f 94/94/94 93/93/93 92/92/92
f 94/94/94 95/95/95 93/93/93
