# Export of MainLevel001
# from Aaro4130 OBJ Exporter v2.0
g RayCastKart
v 23.84633 0.1 10.78616
v 23.84633 0.1 12.28616
v 23.84633 0.6 10.78616
v 23.84633 0.6 12.28616
v 26.34633 0.6 10.78616
v 26.34633 0.6 12.28616
v 26.34633 0.1 10.78616
v 26.34633 0.1 12.28616
v 23.84633 0.6 10.78616
v 23.84633 0.6 12.28616
v 26.34633 0.6 10.78616
v 26.34633 0.6 12.28616
v 26.34633 0.1 10.78616
v 23.84633 0.1 10.78616
v 23.84633 0.1 12.28616
v 26.34633 0.1 12.28616
v 23.84633 0.1 12.28616
v 23.84633 0.6 12.28616
v 26.34633 0.6 12.28616
v 26.34633 0.1 12.28616
v 26.34633 0.1 10.78616
v 26.34633 0.6 10.78616
v 23.84633 0.6 10.78616
v 23.84633 0.1 10.78616
vn -0.8451542 0 -1.007502E-07
vn -0.8451542 0 -1.007502E-07
vn -0.8451542 0 -1.007502E-07
vn -0.8451542 0 -1.007502E-07
vn 0 0.1690308 0
vn 0 0.1690308 0
vn 0.8451542 0 1.007502E-07
vn 0.8451542 0 1.007502E-07
vn 0 0.1690308 0
vn 0 0.1690308 0
vn 0.8451542 0 1.007502E-07
vn 0.8451542 0 1.007502E-07
vn 0 -0.1690308 0
vn 0 -0.1690308 0
vn 0 -0.1690308 0
vn 0 -0.1690308 0
vn -6.045014E-08 0 0.5070925
vn -6.045014E-08 0 0.5070925
vn -6.045014E-08 0 0.5070925
vn -6.045014E-08 0 0.5070925
vn 6.045014E-08 0 -0.5070925
vn 6.045014E-08 0 -0.5070925
vn 6.045014E-08 0 -0.5070925
vn 6.045014E-08 0 -0.5070925
vt 0 0
vt 1 0
vt 0 1
vt 1 1
vt 0 1
vt 1 1
vt 0 1
vt 1 1
vt 0 0
vt 1 0
vt 0 0
vt 1 0
vt 0 0
vt 0 1
vt 1 1
vt 1 0
vt 0 0
vt 0 1
vt 1 1
vt 1 0
vt 0 0
vt 0 1
vt 1 1
vt 1 0
usemtl KartRed
f 4/4/4 3/3/3 1/1/1
f 2/2/2 4/4/4 1/1/1
f 6/6/6 5/5/5 9/9/9
f 10/10/10 6/6/6 9/9/9
f 8/8/8 7/7/7 11/11/11
f 12/12/12 8/8/8 11/11/11
f 15/15/15 14/14/14 13/13/13
f 16/16/16 15/15/15 13/13/13
f 19/19/19 18/18/18 17/17/17
f 20/20/20 19/19/19 17/17/17
f 23/23/23 22/22/22 21/21/21
f 24/24/24 23/23/23 21/21/21
