# Export of MainLevel001
# from Aaro4130 OBJ Exporter v2.0
g Mine
v -9.902731 -0.08425173 -7.700224
v -9.902731 0.5709482 -7.700224
v -9.354435 -0.08425173 -6.376519
v -9.354435 0.5709482 -6.376519
v -9.354435 -0.08425173 -6.376519
v -9.354435 0.5709482 -6.376519
v -8.030732 -0.08425173 -5.828224
v -8.030732 0.5709482 -5.828224
v -8.030732 -0.08425173 -5.828224
v -8.030732 0.5709482 -5.828224
v -6.707029 -0.08425173 -6.376519
v -6.707029 0.5709482 -6.376519
v -6.707029 -0.08425173 -6.376519
v -6.707029 0.5709482 -6.376519
v -6.158734 -0.08425173 -7.700224
v -6.158734 0.5709482 -7.700224
v -6.158734 -0.08425173 -7.700224
v -6.158734 0.5709482 -7.700224
v -6.707029 -0.08425173 -9.023932
v -6.707029 0.5709482 -9.023932
v -6.707029 -0.08425173 -9.023932
v -6.707029 0.5709482 -9.023932
v -8.030732 -0.08425173 -9.572228
v -8.030732 0.5709482 -9.572228
v -8.030732 -0.08425173 -9.572228
v -8.030732 0.5709482 -9.572228
v -9.354435 -0.08425173 -9.023932
v -9.354435 0.5709482 -9.023932
v -9.354435 -0.08425173 -9.023932
v -9.354435 0.5709482 -9.023932
v -9.902731 -0.08425173 -7.700224
v -9.902731 0.5709482 -7.700224
v -9.902731 -0.08425173 -7.700224
v -8.030732 -0.08425173 -7.700224
v -9.354435 -0.08425173 -6.376519
v -9.902731 0.5709482 -7.700224
v -8.030732 0.5709482 -7.700224
v -9.354435 0.5709482 -6.376519
v -9.354435 -0.08425173 -6.376519
v -8.030732 -0.08425173 -7.700224
v -8.030732 -0.08425173 -5.828224
v -9.354435 0.5709482 -6.376519
v -8.030732 0.5709482 -7.700224
v -8.030732 0.5709482 -5.828224
v -8.030732 -0.08425173 -5.828224
v -8.030732 -0.08425173 -7.700224
v -6.707029 -0.08425173 -6.376519
v -8.030732 0.5709482 -5.828224
v -8.030732 0.5709482 -7.700224
v -6.707029 0.5709482 -6.376519
v -6.707029 -0.08425173 -6.376519
v -8.030732 -0.08425173 -7.700224
v -6.158734 -0.08425173 -7.700224
v -6.707029 0.5709482 -6.376519
v -8.030732 0.5709482 -7.700224
v -6.158734 0.5709482 -7.700224
v -6.158734 -0.08425173 -7.700224
v -8.030732 -0.08425173 -7.700224
v -6.707029 -0.08425173 -9.023932
v -6.158734 0.5709482 -7.700224
v -8.030732 0.5709482 -7.700224
v -6.707029 0.5709482 -9.023932
v -6.707029 -0.08425173 -9.023932
v -8.030732 -0.08425173 -7.700224
v -8.030732 -0.08425173 -9.572228
v -6.707029 0.5709482 -9.023932
v -8.030732 0.5709482 -7.700224
v -8.030732 0.5709482 -9.572228
v -8.030732 -0.08425173 -9.572228
v -8.030732 -0.08425173 -7.700224
v -9.354435 -0.08425173 -9.023932
v -8.030732 0.5709482 -9.572228
v -8.030732 0.5709482 -7.700224
v -9.354435 0.5709482 -9.023932
v -9.354435 -0.08425173 -9.023932
v -8.030732 -0.08425173 -7.700224
v -9.902731 -0.08425173 -7.700224
v -9.354435 0.5709482 -9.023932
v -8.030732 0.5709482 -7.700224
v -9.902731 0.5709482 -7.700224
vn -0.5334023 0 2.064765E-07
vn -0.5334023 0 2.064765E-07
vn -0.3771723 0 0.3771722
vn -0.3771723 0 0.3771722
vn -0.3771723 0 0.3771722
vn -0.3771723 0 0.3771722
vn 0 0 0.5334021
vn 0 0 0.5334021
vn 0 0 0.5334021
vn 0 0 0.5334021
vn 0.3771723 0 0.3771721
vn 0.3771723 0 0.3771721
vn 0.3771723 0 0.3771721
vn 0.3771723 0 0.3771721
vn 0.5334023 0 2.150797E-07
vn 0.5334023 0 2.150797E-07
vn 0.5334023 0 2.150797E-07
vn 0.5334023 0 2.150797E-07
vn 0.3771726 0 -0.3771718
vn 0.3771726 0 -0.3771718
vn 0.3771726 0 -0.3771718
vn 0.3771726 0 -0.3771718
vn 0 0 -0.5334019
vn 0 0 -0.5334019
vn 0 0 -0.5334019
vn 0 0 -0.5334019
vn -0.3771726 0 -0.3771719
vn -0.3771726 0 -0.3771719
vn -0.3771726 0 -0.3771719
vn -0.3771726 0 -0.3771719
vn -0.5334023 0 2.064765E-07
vn -0.5334023 0 2.064765E-07
vn 0 -0.5773503 0
vn 0 -0.5773503 0
vn 0 -0.5773503 0
vn 0 0.5773503 0
vn 0 0.5773503 0
vn 0 0.5773503 0
vn 0 -0.5773503 0
vn 0 -0.5773503 0
vn 0 -0.5773503 0
vn 0 0.5773503 0
vn 0 0.5773503 0
vn 0 0.5773503 0
vn 0 -0.5773503 0
vn 0 -0.5773503 0
vn 0 -0.5773503 0
vn 0 0.5773503 0
vn 0 0.5773503 0
vn 0 0.5773503 0
vn 0 -0.5773503 0
vn 0 -0.5773503 0
vn 0 -0.5773503 0
vn 0 0.5773503 0
vn 0 0.5773503 0
vn 0 0.5773503 0
vn 0 -0.5773503 0
vn 0 -0.5773503 0
vn 0 -0.5773503 0
vn 0 0.5773503 0
vn 0 0.5773503 0
vn 0 0.5773503 0
vn 0 -0.5773503 0
vn 0 -0.5773503 0
vn 0 -0.5773503 0
vn 0 0.5773503 0
vn 0 0.5773503 0
vn 0 0.5773503 0
vn 0 -0.5773503 0
vn 0 -0.5773503 0
vn 0 -0.5773503 0
vn 0 0.5773503 0
vn 0 0.5773503 0
vn 0 0.5773503 0
vn 0 -0.5773503 0
vn 0 -0.5773503 0
vn 0 -0.5773503 0
vn 0 0.5773503 0
vn 0 0.5773503 0
vn 0 0.5773503 0
vt -10.90369 -0.08425173
vt -10.90369 0.5709482
vt -9.470922 -0.08425173
vt -9.470922 0.5709482
vt -11.08256 -0.08425173
vt -11.08256 0.5709482
vt -9.649794 -0.08425173
vt -9.649794 0.5709482
vt -5.189066 -0.08425173
vt -5.189066 0.5709482
vt -3.7563 -0.08425173
vt -3.7563 0.5709482
vt 3.324471 -0.08425173
vt 3.324471 0.5709482
vt 4.757239 -0.08425173
vt 4.757239 0.5709482
vt 9.470922 -0.08425173
vt 9.470922 0.5709482
vt 10.90369 -0.08425173
vt 10.90369 0.5709482
vt 9.649801 -0.08425173
vt 9.649801 0.5709482
vt 11.08257 -0.08425173
vt 11.08257 0.5709482
vt 3.756287 -0.08425173
vt 3.756287 0.5709482
vt 5.189053 -0.08425173
vt 5.189053 0.5709482
vt -4.757252 -0.08425173
vt -4.757252 0.5709482
vt -3.324481 -0.08425173
vt -3.324481 0.5709482
vt -9.902731 -7.700224
vt -8.030732 -7.700224
vt -9.354435 -6.376519
vt 9.902731 -7.700224
vt 8.030732 -7.700224
vt 9.354435 -6.376519
vt -9.354435 -6.376519
vt -8.030732 -7.700224
vt -8.030732 -5.828224
vt 9.354435 -6.376519
vt 8.030732 -7.700224
vt 8.030732 -5.828224
vt -8.030732 -5.828224
vt -8.030732 -7.700224
vt -6.707029 -6.376519
vt 8.030732 -5.828224
vt 8.030732 -7.700224
vt 6.707029 -6.376519
vt -6.707029 -6.376519
vt -8.030732 -7.700224
vt -6.158734 -7.700224
vt 6.707029 -6.376519
vt 8.030732 -7.700224
vt 6.158734 -7.700224
vt -6.158734 -7.700224
vt -8.030732 -7.700224
vt -6.707029 -9.023932
vt 6.158734 -7.700224
vt 8.030732 -7.700224
vt 6.707029 -9.023932
vt -6.707029 -9.023932
vt -8.030732 -7.700224
vt -8.030732 -9.572228
vt 6.707029 -9.023932
vt 8.030732 -7.700224
vt 8.030732 -9.572228
vt -8.030732 -9.572228
vt -8.030732 -7.700224
vt -9.354435 -9.023932
vt 8.030732 -9.572228
vt 8.030732 -7.700224
vt 9.354435 -9.023932
vt -9.354435 -9.023932
vt -8.030732 -7.700224
vt -9.902731 -7.700224
vt 9.354435 -9.023932
vt 8.030732 -7.700224
vt 9.902731 -7.700224
usemtl Mine
f 3/3/3 2/2/2 1/1/1
f 3/3/3 4/4/4 2/2/2
f 7/7/7 6/6/6 5/5/5
f 7/7/7 8/8/8 6/6/6
f 11/11/11 10/10/10 9/9/9
f 11/11/11 12/12/12 10/10/10
f 15/15/15 14/14/14 13/13/13
f 15/15/15 16/16/16 14/14/14
f 19/19/19 18/18/18 17/17/17
f 19/19/19 20/20/20 18/18/18
f 23/23/23 22/22/22 21/21/21
f 23/23/23 24/24/24 22/22/22
f 27/27/27 26/26/26 25/25/25
f 27/27/27 28/28/28 26/26/26
f 31/31/31 30/30/30 29/29/29
f 31/31/31 32/32/32 30/30/30
f 33/33/33 34/34/34 35/35/35
f 39/39/39 40/40/40 41/41/41
f 45/45/45 46/46/46 47/47/47
f 51/51/51 52/52/52 53/53/53
f 57/57/57 58/58/58 59/59/59
f 63/63/63 64/64/64 65/65/65
f 69/69/69 70/70/70 71/71/71
f 75/75/75 76/76/76 77/77/77
f 38/38/38 37/37/37 36/36/36
f 44/44/44 43/43/43 42/42/42
f 50/50/50 49/49/49 48/48/48
f 56/56/56 55/55/55 54/54/54
f 62/62/62 61/61/61 60/60/60
f 68/68/68 67/67/67 66/66/66
f 74/74/74 73/73/73 72/72/72
f 80/80/80 79/79/79 78/78/78
