# Export of MainLevel001
# from Aaro4130 OBJ Exporter v2.0
g TrackPiece(20x10) (1)
v 0 0 0
v 0 0 2.5
v -5 0 0
v -5 0 2.5
v 0 0 2.5
v 0 0 5
v -5 0 2.5
v -5 0 5
v 0 0 5
v 0 0 7.5
v -5 0 5
v -5 0 7.5
v 0 0 7.5
v 0 0 10
v -5 0 7.5
v -5 0 10
v -5 0 0
v -5 0 2.5
v -10 0 0
v -10 0 2.5
v -5 0 2.5
v -5 0 5
v -10 0 2.5
v -10 0 5
v -5 0 5
v -5 0 7.5
v -10 0 5
v -10 0 7.5
v -5 0 7.5
v -5 0 10
v -10 0 7.5
v -10 0 10
v -10 0 0
v -10 0 2.5
v -15 0 0
v -15 0 2.5
v -10 0 2.5
v -10 0 5
v -15 0 2.5
v -15 0 5
v -10 0 5
v -10 0 7.5
v -15 0 5
v -15 0 7.5
v -10 0 7.5
v -10 0 10
v -15 0 7.5
v -15 0 10
v -15 0 0
v -15 0 2.5
v -20 0 0
v -20 0 2.5
v -15 0 2.5
v -15 0 5
v -20 0 2.5
v -20 0 5
v -15 0 5
v -15 0 7.5
v -20 0 5
v -20 0 7.5
v -15 0 7.5
v -15 0 10
v -20 0 7.5
v -20 0 10
vn 0 0.5773503 0
vn 0 0.5773503 0
vn 0 0.5773503 0
vn 0 0.5773503 0
vn 0 0.5773503 0
vn 0 0.5773503 0
vn 0 0.5773503 0
vn 0 0.5773503 0
vn 0 0.5773503 0
vn 0 0.5773503 0
vn 0 0.5773503 0
vn 0 0.5773503 0
vn 0 0.5773503 0
vn 0 0.5773503 0
vn 0 0.5773503 0
vn 0 0.5773503 0
vn 0 0.5773503 0
vn 0 0.5773503 0
vn 0 0.5773503 0
vn 0 0.5773503 0
vn 0 0.5773503 0
vn 0 0.5773503 0
vn 0 0.5773503 0
vn 0 0.5773503 0
vn 0 0.5773503 0
vn 0 0.5773503 0
vn 0 0.5773503 0
vn 0 0.5773503 0
vn 0 0.5773503 0
vn 0 0.5773503 0
vn 0 0.5773503 0
vn 0 0.5773503 0
vn 0 0.5773503 0
vn 0 0.5773503 0
vn 0 0.5773503 0
vn 0 0.5773503 0
vn 0 0.5773503 0
vn 0 0.5773503 0
vn 0 0.5773503 0
vn 0 0.5773503 0
vn 0 0.5773503 0
vn 0 0.5773503 0
vn 0 0.5773503 0
vn 0 0.5773503 0
vn 0 0.5773503 0
vn 0 0.5773503 0
vn 0 0.5773503 0
vn 0 0.5773503 0
vn 0 0.5773503 0
vn 0 0.5773503 0
vn 0 0.5773503 0
vn 0 0.5773503 0
vn 0 0.5773503 0
vn 0 0.5773503 0
vn 0 0.5773503 0
vn 0 0.5773503 0
vn 0 0.5773503 0
vn 0 0.5773503 0
vn 0 0.5773503 0
vn 0 0.5773503 0
vn 0 0.5773503 0
vn 0 0.5773503 0
vn 0 0.5773503 0
vn 0 0.5773503 0
vt 0 0
vt 0 2.5
vt 5 0
vt 5 2.5
vt 0 2.5
vt 0 5
vt 5 2.5
vt 5 5
vt 0 5
vt 0 7.5
vt 5 5
vt 5 7.5
vt 0 7.5
vt 0 10
vt 5 7.5
vt 5 10
vt 5 0
vt 5 2.5
vt 10 0
vt 10 2.5
vt 5 2.5
vt 5 5
vt 10 2.5
vt 10 5
vt 5 5
vt 5 7.5
vt 10 5
vt 10 7.5
vt 5 7.5
vt 5 10
vt 10 7.5
vt 10 10
vt 10 0
vt 10 2.5
vt 15 0
vt 15 2.5
vt 10 2.5
vt 10 5
vt 15 2.5
vt 15 5
vt 10 5
vt 10 7.5
vt 15 5
vt 15 7.5
vt 10 7.5
vt 10 10
vt 15 7.5
vt 15 10
vt 15 0
vt 15 2.5
vt 20 0
vt 20 2.5
vt 15 2.5
vt 15 5
vt 20 2.5
vt 20 5
vt 15 5
vt 15 7.5
vt 20 5
vt 20 7.5
vt 15 7.5
vt 15 10
vt 20 7.5
vt 20 10
usemtl Muddy
f 3/3/3 2/2/2 1/1/1
f 3/3/3 4/4/4 2/2/2
f 7/7/7 6/6/6 5/5/5
f 7/7/7 8/8/8 6/6/6
f 11/11/11 10/10/10 9/9/9
f 11/11/11 12/12/12 10/10/10
f 15/15/15 14/14/14 13/13/13
f 15/15/15 16/16/16 14/14/14
f 19/19/19 18/18/18 17/17/17
f 19/19/19 20/20/20 18/18/18
f 23/23/23 22/22/22 21/21/21
f 23/23/23 24/24/24 22/22/22
f 27/27/27 26/26/26 25/25/25
f 27/27/27 28/28/28 26/26/26
f 31/31/31 30/30/30 29/29/29
f 31/31/31 32/32/32 30/30/30
f 35/35/35 34/34/34 33/33/33
f 35/35/35 36/36/36 34/34/34
f 39/39/39 38/38/38 37/37/37
f 39/39/39 40/40/40 38/38/38
f 43/43/43 42/42/42 41/41/41
f 43/43/43 44/44/44 42/42/42
f 47/47/47 46/46/46 45/45/45
f 47/47/47 48/48/48 46/46/46
f 51/51/51 50/50/50 49/49/49
f 51/51/51 52/52/52 50/50/50
f 55/55/55 54/54/54 53/53/53
f 55/55/55 56/56/56 54/54/54
f 59/59/59 58/58/58 57/57/57
f 59/59/59 60/60/60 58/58/58
f 63/63/63 62/62/62 61/61/61
f 63/63/63 64/64/64 62/62/62
